<!DOCTYPE svg PUBLIC "-//W3C//DTD SVG 1.1//EN" "http://www.w3.org/Graphics/SVG/1.1/DTD/svg11.dtd">
<!-- Uploaded to: SVG Repo, www.svgrepo.com, Transformed by: SVG Repo Mixer Tools -->
<svg fill="#1b3530" height="800px" width="800px" version="1.1" id="Layer_1" xmlns="http://www.w3.org/2000/svg" xmlns:xlink="http://www.w3.org/1999/xlink" viewBox="0 0 507.9 507.9" xml:space="preserve">
<g id="SVGRepo_bgCarrier" stroke-width="0"/>
<g id="SVGRepo_tracerCarrier" stroke-linecap="round" stroke-linejoin="round"/>
<g id="SVGRepo_iconCarrier"> <g> <g> <path d="M441.25,89.4l-77-77c-8-8-18.6-12.4-29.9-12.4H96.55c-23.4,0-42.3,19-42.3,42.3v423.3c0,23.3,19,42.3,42.3,42.3h314.8 c23.3,0,42.3-19,42.3-42.3V119.3C453.65,108,449.25,97.4,441.25,89.4z M360.15,48.2l45.3,45.3h-45.3V48.2z M425.45,465.7 c0,7.8-6.3,14.1-14.1,14.1H96.55c-7.8,0-14.1-6.3-14.1-14.1V42.3c0-7.8,6.3-14.1,14.1-14.1h235.4v79.4c0,7.8,6.3,14.1,14.1,14.1 h79.4V465.7z"/> </g> </g> <g> <g> <path d="M207.55,413.7h-86c-7.8,0-14.1,6.3-14.1,14.1s6.3,14.1,14.1,14.1h86c7.8,0,14.1-6.3,14.1-14.1 C221.75,420,215.35,413.7,207.55,413.7z"/> </g> </g> <g> <g> <path d="M293.65,326.8h-172c-7.8,0-14.1,6.3-14.1,14.1c0,7.8,6.3,14.1,14.1,14.1h172c7.8,0,14.1-6.3,14.1-14.1 C307.75,333.1,301.45,326.8,293.65,326.8z"/> </g> </g> <g> <g> <path d="M386.25,239.9h-264.6c-7.8,0-14.1,6.3-14.1,14.1s6.3,14.1,14.1,14.1h264.7c7.8,0,14.1-6.3,14.1-14.1 C400.35,246.2,394.05,239.9,386.25,239.9z"/> </g> </g> <g> <g> <path d="M386.35,153h-264.7c-7.8,0-14.1,6.3-14.1,14.1c0,7.8,6.3,14.1,14.1,14.1h264.7c7.8,0,14.1-6.3,14.1-14.1 C400.45,159.3,394.15,153,386.35,153z"/> </g> </g> <g> <g> <path d="M221.35,66.1h-99.7c-7.8,0-14.1,6.3-14.1,14.1s6.3,14.1,14.1,14.1h99.7c7.8,0,14.1-6.3,14.1-14.1S229.15,66.1,221.35,66.1 z"/> </g> </g> <g> <g> <path d="M387.95,339.9c-5.6-5.6-14.5-5.6-20,0l-75.4,75.4l-34.7-34.7c-5.5-5.5-14.4-5.5-20,0c-5.5,5.5-5.5,14.4,0,20l44.7,44.7 c2.8,2.8,6.4,4.1,10,4.1c3.6,0,7.2-1.4,10-4.1l85.4-85.4C393.45,354.4,393.45,345.5,387.95,339.9z"/> </g> </g> </g>
</svg>